<?xml version="1.0" encoding="UTF-8"?>
<svg width="688px" height="272px" viewBox="0 0 688 272" version="1.1" xmlns="http://www.w3.org/2000/svg" xmlns:xlink="http://www.w3.org/1999/xlink">
    <title>Best Mattress Online</title>
    <g id="Page-1" stroke="none" stroke-width="1" fill="none" fill-rule="evenodd">
        <g id="Best-Mattress-Online" fill-rule="nonzero">
            <g id="Check">
                <path d="M120.620201,254.914156 C120.791428,255.177409 120.159063,257.570367 118.273361,260.583136 C117.328304,262.077419 116.05494,263.782164 114.397601,265.340638 C112.743202,266.866666 110.68719,268.385328 108.221483,269.547255 C103.299805,271.805692 97.6647428,272.297823 93.4351389,271.849363 C89.1533583,271.517183 86.297797,270.353326 86.1816859,270.115504 C85.9582824,269.561812 92.9284384,262.352423 102.14439,258.406429 C103.307338,257.897109 104.443646,257.519505 105.569483,257.13734 C106.696239,256.743425 107.79562,256.424749 108.853848,256.170616 C109.383512,256.042585 109.902705,255.931917 110.411426,255.834753 C110.92125,255.718473 111.421336,255.601491 111.908194,255.506958 C112.880992,255.312807 113.802348,255.173901 114.656279,255.077615 C118.068145,254.602846 120.472857,254.682822 120.620201,254.914156 Z M84.9779295,230.848822 C85.5731536,231.530453 86.194185,232.472292 86.8229134,233.517238 C87.454811,234.554162 88.0593919,235.803752 88.5672345,237.289292 C89.6106876,240.143767 90.1130965,243.368991 90.336457,245.91278 C90.5723429,248.406875 90.4909977,250.256708 90.3458139,250.397574 C90.2969074,250.446323 90.0021284,250.37969 89.5498447,250.16219 C88.8368011,251.034877 87.6999587,252.208014 86.1702918,253.419198 C83.2878995,255.677868 78.8552454,258.172354 73.2592779,258.852216 C70.4495335,259.228809 67.7025736,259.008654 65.0735958,258.634731 C62.5297841,258.141031 60.11268,257.46028 58.1310828,256.645158 C56.1601079,255.815086 54.5379563,254.959387 53.4133379,254.278635 C52.3177406,253.562823 51.7158829,253.025875 51.7057487,252.879402 C51.6652381,252.294401 60.8131719,247.28425 71.1818917,246.298629 C72.4669802,246.203768 73.7551039,246.113536 74.9851848,246.097874 C76.2154553,246.083102 77.3933739,246.130977 78.5096465,246.229575 C80.7981476,246.322656 82.826406,246.661518 84.580765,246.977423 C85.0642198,247.057412 85.5235284,247.144104 85.9565674,247.234846 C84.8099932,245.933927 83.7056266,244.168941 82.9415807,242.056598 C81.9019001,238.898285 81.7455481,235.71356 81.9393281,233.177988 C82.1291844,230.654546 82.5829971,228.922883 82.6946774,228.836799 C82.8360881,228.720389 83.7828028,229.503169 84.9779295,230.848822 Z M106.139334,238.473401 C106.880252,238.862837 107.715402,239.419229 108.577964,240.188554 C109.438969,240.989245 110.349036,241.804937 111.214869,242.991751 C111.6502,243.572495 112.057339,244.190644 112.436909,244.827885 C112.819129,245.447981 113.174558,246.056974 113.503509,246.690319 C114.161255,247.945708 114.712778,249.219215 115.149666,250.366677 C116.025155,252.663548 116.427311,254.458382 116.32171,254.645014 C116.245236,254.7921 114.860277,254.80223 112.987498,254.23259 C112.051576,253.986539 111.008496,253.416899 109.962923,252.718097 C108.917351,252.013256 107.876607,251.102689 106.974483,249.828208 C106.069244,248.588014 105.376765,247.224697 104.860754,245.878718 C104.349727,244.481113 104.012677,243.097536 103.792597,241.879551 C103.355709,239.442412 103.375023,237.63063 103.46131,237.502442 C103.56769,237.349122 104.672916,237.601408 106.139334,238.473401 Z M50.9747509,229.399175 C53.6212449,229.787569 55.9366634,230.507223 58.1300156,231.19487 C59.2098021,231.554524 60.2166562,231.947392 61.1459708,232.352649 C62.0812358,232.752572 62.9848323,233.118594 63.7778786,233.510429 C65.3708802,234.288075 66.6358772,235.050406 67.5557877,235.595568 C68.4566976,236.161895 68.9468812,236.585049 68.9412229,236.705336 C68.9345979,237.247744 60.3538842,243.064691 49.099807,241.516626 C47.7115924,241.318041 46.3421867,241.025155 45.0299755,240.651905 C43.7490486,240.252842 42.5111135,239.782538 41.3340196,239.266803 C38.944517,238.262178 36.9513455,236.974303 35.2571978,235.776427 C33.5409783,234.590943 32.3082252,233.376031 31.4361048,232.479991 C30.5737726,231.575863 30.1292676,230.956017 30.1636227,230.816285 C30.2206253,230.566936 32.865584,229.741106 36.7561548,229.253077 C40.6198557,228.783804 45.7988388,228.535143 50.9747509,229.399175 Z M63.7030626,211.556097 C63.8818924,211.530277 64.960615,212.444466 66.0205736,214.126474 C66.5348526,214.986354 67.1236121,215.956811 67.6032358,217.117977 C68.0882208,218.272733 68.4535385,219.634935 68.712593,221.058926 C68.9528835,222.507668 68.9831348,223.985079 68.8979322,225.39251 C68.813687,226.795133 68.6517064,228.076137 68.4163939,229.21914 C67.9628102,231.491793 67.311824,233.075152 67.0962322,233.141393 C66.9436336,233.183772 65.507826,232.309292 63.997921,230.585795 C63.2590516,229.706685 62.4895481,228.63651 61.8345406,227.417295 C61.1839377,226.192381 60.72078,224.7399 60.4774262,223.229369 C60.3615889,222.466357 60.310467,221.720796 60.326359,220.986097 C60.3550789,220.237866 60.4383669,219.511536 60.5612881,218.817614 C60.8069399,217.427633 61.211317,216.166929 61.6497754,215.098713 C62.5253521,212.96976 63.5391673,211.596518 63.7030626,211.556097 Z M49.264251,194.285724 C49.4703102,194.284849 50.1559253,195.500305 50.8151274,197.338144 C51.1347065,198.264699 51.3900326,199.387481 51.5413925,200.63295 C51.7245978,201.855778 51.7725534,203.221125 51.5936565,204.695468 C50.9644267,210.497711 47.2272622,215.860108 46.7870448,215.872043 C46.6809661,215.896666 46.2461985,215.456841 45.7098873,214.663316 C44.6308227,215.020085 43.0840916,215.408842 41.2248463,215.643843 C39.3999833,215.874642 37.256309,215.966204 34.9190971,215.752199 C32.6101131,215.522302 30.1664462,214.94747 27.6611572,213.931445 C25.1879707,212.897541 23.0193893,211.446103 21.0709131,209.905631 C19.2202206,208.315677 17.6230273,206.617365 16.3693681,205.038608 C13.9614936,201.827817 12.7650286,199.195651 12.943991,198.920786 C13.0729546,198.677706 15.6894955,198.430111 19.4775943,198.768365 C21.3616809,198.939568 23.516425,199.255428 25.750872,199.795767 C27.986795,200.336828 30.4094292,201.045481 32.6888935,202.091305 C34.9714943,203.139114 37.1048367,204.316049 38.8542402,205.601159 C40.6471415,206.83305 42.2018344,208.089438 43.4283168,209.281355 C43.1190824,207.91297 42.9876204,206.393997 43.1750144,204.802709 C43.9438025,198.682605 48.9472945,194.282919 49.264251,194.285724 Z M38.0600736,168.38242 C38.369221,168.521296 39.5975197,173.822839 37.9012749,179.63488 C36.9881821,182.584346 35.561385,185.144737 34.2364679,187.01681 C34.0707307,187.251835 33.9074004,187.475101 33.7481306,187.685761 C33.8014145,187.769146 33.839668,187.844758 33.875648,187.91854 C34.335071,188.820226 34.5253296,189.413227 34.4571168,189.517102 C34.3468791,189.677804 33.2964155,189.898541 31.6245805,189.954797 C31.5682948,189.966597 31.5648687,189.965278 31.5612163,189.963242 C30.5772388,189.98734 29.3788669,189.960696 28.0329377,189.831837 C24.3249221,189.495497 19.6235793,188.297743 15.2527925,185.356416 C13.147964,183.866049 11.267685,182.104676 9.80000179,180.260168 C8.36292218,178.4084 7.15076079,176.52172 6.33017817,174.796123 C4.68274479,171.340437 4.12782374,168.658537 4.35882576,168.440245 C4.55055928,168.238026 7.12919073,168.535132 10.7538761,169.61121 C14.3693434,170.686424 18.8186672,172.534562 22.8893173,175.401741 C25.9409073,177.595394 28.3472599,180.07864 30.1712039,182.351725 L30.1711564,182.290428 C30.214842,180.864375 30.401861,179.353454 30.8948386,177.825632 C32.7391999,171.749249 37.8225133,168.299756 38.0600736,168.38242 Z M6.41238195,140.479628 C8.11182919,141.326606 9.99982767,142.402097 11.86507,143.700876 C13.7549807,145.000329 15.7003478,146.518857 17.386409,148.277357 C20.0436023,151.000786 21.9191267,153.893972 23.2374854,156.454863 L23.3239057,156.248991 L23.3239057,156.248991 L23.9368171,155.101434 C27.412197,149.036869 34.0076816,146.646749 34.2869076,146.800618 C34.370524,146.846516 34.4533838,147.273547 34.4679504,147.972526 C34.4757067,148.322118 34.4670045,148.739645 34.4337093,149.213787 C34.4204668,149.684694 34.3871716,150.208979 34.3211487,150.779365 C34.1908054,151.9169 33.9361725,153.230344 33.491227,154.626281 C33.0536594,156.020198 32.5165845,157.484275 31.6734203,158.95563 C29.9702552,161.900566 27.7495005,164.275116 25.8030532,165.929659 C23.867389,167.579954 22.2682716,168.468389 22.0628248,168.374168 C21.903159,168.304209 21.5155342,166.530373 21.5458026,163.99144 C21.5470701,163.864503 21.5503751,163.735504 21.5556526,163.604601 C20.8485615,163.446842 20.0609045,163.253538 19.2239232,163.010839 C15.5420106,161.962481 11.0831369,159.908398 7.3276013,156.282534 C5.53598198,154.465727 4.0836019,152.436079 2.98155234,150.410813 C1.94509414,148.38285 1.21326287,146.365505 0.713009239,144.57566 C-0.133941565,140.990915 -0.0897677936,138.344487 0.152327424,138.178664 C0.365929602,138.022615 3.01253135,138.783142 6.41238195,140.479628 Z M5.11476049,107.944046 C5.32493055,107.827735 7.36978463,109.066107 9.84845962,111.364041 C12.2888037,113.657379 15.3198654,116.988992 17.4356965,121.069045 C18.5641831,123.122779 19.3439563,125.179068 19.9138843,127.125178 C20.5417957,129.075714 20.9226681,130.913347 21.138198,132.514954 C21.7003298,135.716975 21.5725061,137.994474 21.382476,138.132923 C21.1404718,138.297766 18.9185811,137.684371 16.1140938,135.979737 C14.7116066,135.12742 13.163592,133.995652 11.6465994,132.5422 C10.151046,131.088919 8.75391854,129.314465 7.54795817,127.188697 C5.18281401,122.94295 4.38501233,118.123315 4.32589185,114.404795 C4.24809319,112.538042 4.45241618,110.959425 4.61629685,109.824081 C4.79398314,108.689758 4.99619468,108.006713 5.11476049,107.944046 Z M38.6271603,120.892251 L38.7339842,120.915463 C38.8660967,121.033275 38.7361995,122.52756 37.9950808,124.547668 C37.1836766,126.564012 35.922365,129.129703 33.569313,131.480097 C29.0027729,136.171286 22.0433053,138.400857 21.6375026,138.137946 C21.4858552,138.042342 21.4586674,136.345557 22.0277982,134.03412 C22.5355049,131.722683 23.9494708,128.817108 26.2723142,126.40235 C28.7317007,123.995498 31.7841835,122.563505 34.2300767,121.771572 C36.680602,120.978697 38.6085177,120.814966 38.7339842,120.915463 L38.6271603,120.892251 Z M24.5103334,89.6659116 C25.1809361,92.020657 25.4859836,94.2782776 25.6814585,96.3973001 C25.9057765,98.5264254 25.8636091,100.46644 25.8117228,102.158149 C25.708734,105.534832 25.1589903,107.82081 24.9865585,107.928038 C24.7501702,108.047316 22.6880432,106.909822 20.3887441,104.55419 C18.0841153,102.195723 15.372234,98.5273113 13.9926233,93.6498021 C12.562537,88.7660889 12.7730605,83.6517937 13.4518146,79.8293642 C13.7488674,77.9001607 14.2606762,76.3316304 14.6420639,75.20601 C15.0364624,74.0858846 15.3640827,73.4347225 15.4882336,73.3989213 C15.7102003,73.3282043 17.3879613,75.0766282 19.2666837,78.0047294 C21.1137413,80.9218412 23.2978246,85.0205803 24.5103334,89.6659116 M31.8428689,97.8939895 C29.4466585,99.6787245 27.8018193,102.11593 26.9377508,104.152833 C26.4825688,105.165238 26.179959,106.066497 26.004746,106.725548 C25.851667,107.391889 25.8244642,107.817088 25.8783629,107.875062 C26.0235008,108.030666 27.598052,107.908317 29.7349066,107.306174 C31.8922057,106.708831 34.5726092,105.645744 36.8669359,103.899776 C41.5464906,100.453722 43.2524937,95.4742115 43.0759291,95.1713613 C42.8748651,94.9337761 36.7675866,94.3529724 31.8428689,97.8939895 M32.4637124,43.1744653 C32.7366998,43.1668138 34.1468037,45.4538332 35.5766002,49.0838173 C36.2858978,50.8919545 36.9890527,53.0171251 37.5332209,55.3237568 C38.1028632,57.6480967 38.574042,60.1912182 38.7021347,62.7880353 C38.8587728,65.4037029 38.777834,67.9108372 38.4544406,70.1430182 C38.2242712,72.4334653 37.7816377,74.47257 37.3084715,76.2089225 C37.1025115,77.0667914 36.8788071,77.848507 36.6551655,78.5411571 C38.1145576,77.0210745 40.3052346,75.328676 43.2287824,74.3334745 C46.3236567,73.3408424 49.4543435,73.2723959 51.856593,73.514009 C54.2832175,73.7687122 55.9349046,74.2812721 56.0087796,74.4020783 C56.0912796,74.5473299 55.3090297,75.5759198 53.8767176,76.8418648 C53.1580302,77.474443 52.1944679,78.1251573 51.1215932,78.7821808 C50.0477809,79.4401501 48.7759687,80.0572727 47.297344,80.5518537 C42.5774201,82.2044499 37.1627069,82.1508509 35.2206538,81.8999856 C35.1744401,81.9807977 35.1339492,82.0220736 35.1075894,82.03034 C35.0390889,82.0435371 34.8810755,81.9655191 34.6535717,81.8010882 C34.5510601,81.7665113 34.5003659,81.7418316 34.4849094,81.7182824 C34.4762469,81.7101003 34.4715155,81.6958738 34.4707157,81.6759497 C33.6614268,81.023094 32.1807711,79.5084747 30.6888424,77.2841703 C29.647118,75.7368954 28.5826297,73.8318389 27.6975433,71.6046089 C26.8115537,69.3802339 26.2131854,66.885858 25.94887,64.1077699 C25.6870839,61.3334903 25.9962047,58.6528925 26.4529302,56.1135792 C26.9752377,53.611396 27.7840827,51.3314218 28.5853396,49.382 C30.3401556,45.5690315 32.1330923,43.1510097 32.4637124,43.1744653 Z M54.3081511,21.5896158 C54.8495374,21.7430048 57.1235981,32.1813416 55.3487422,42.5428877 C55.1283097,43.8517935 54.8386519,45.0881428 54.5120852,46.2669472 C54.2130726,47.4771222 53.867116,48.6187822 53.490884,49.6867309 C52.894958,51.2941389 52.3018057,52.811315 51.6963074,54.1393727 L52.3100938,53.7484072 L53.2070457,53.2532787 C53.826361,52.9391034 54.4759256,52.6472456 55.1681223,52.4148367 C55.8767704,52.199743 56.6156678,52.0314004 57.3793308,51.9288558 C58.9093102,51.7276142 60.3763143,51.7899491 61.7462023,52.0483308 C63.1300652,52.3236431 64.3839085,52.7547924 65.4419279,53.2159548 C67.5572581,54.140973 68.9045032,55.1766164 68.9402366,55.3393796 C68.9750851,55.5306167 68.036648,56.5697232 66.3478157,57.5897828 C64.7315105,58.7135415 62.3096179,59.7730414 59.4247871,60.255944 C56.4752119,60.6593888 53.5567704,60.3636835 51.2870091,59.8557698 C50.6725523,59.7194727 50.1098224,59.5690545 49.614759,59.4178773 L48.931,59.1943793 L48.7322212,59.4950886 C48.2901964,60.1199069 47.9728427,60.4517541 47.8737671,60.4446018 C47.5749246,60.4133693 46.1065652,58.2566867 44.8394185,54.6756234 C43.5491399,51.0762766 42.5796451,46.078146 43.3783728,40.4814716 C43.8265515,37.7366376 44.5905814,35.0331821 45.6879816,32.7335031 C46.2193327,31.5677859 46.7937159,30.4609608 47.3825564,29.4311188 C47.9768397,28.4060882 48.6304833,27.5050005 49.2436463,26.6637672 C50.4766056,24.9857272 51.6539464,23.6660437 52.6025206,22.8377051 C53.5339159,21.9880036 54.1708911,21.5517017 54.3081511,21.5896158 Z M80.2454013,34.6978421 C83.3412985,35.2919054 85.8833946,36.8029928 87.6812264,38.3251531 C89.4763657,39.8428843 90.4936712,41.2155599 90.4853375,41.3731648 C90.4778737,41.5750614 89.2830293,42.1209574 87.4600652,42.6340037 C86.5449036,42.8866513 85.4188126,43.0145438 84.202606,43.1201058 C82.9835269,43.224376 81.6204778,43.1883889 80.1459505,42.9311276 C77.2518274,42.510725 74.4496149,41.3272121 72.3627661,40.2149351 C70.298715,39.1384606 68.9491295,38.074351 68.9411171,37.8536304 C68.9315369,37.6875362 70.1542062,36.6095854 72.2466203,35.7652736 C74.2851803,34.8410521 77.2238232,34.2370231 80.2454013,34.6978421 Z M97.2225801,26.120412 C98.4380302,26.380689 99.7218653,26.9382187 100.936509,27.7417721 C105.854113,31.1507803 107.810026,38.2210174 107.717448,38.547603 C107.649869,38.6952999 106.510385,39.0006089 104.841561,38.7791669 C104.423347,38.7289706 103.969166,38.6203153 103.490953,38.514552 C103.015967,38.4253142 102.512594,38.2947626 101.987447,38.1136016 C100.942315,37.7715233 99.7936377,37.1373565 98.6391537,36.4269657 C97.4770894,35.6754677 96.3827649,34.7194664 95.3902119,33.7101702 C94.3950786,32.6957099 93.5244578,31.7221502 92.7856075,30.7605715 C91.3122618,28.8659206 90.4358342,27.2509642 90.4874459,27.0169215 C90.5293802,26.8576568 91.8557947,26.1348719 93.8541259,25.9413168 C94.855872,25.8681913 96.0137434,25.8938059 97.2225801,26.120412 Z M81.7440676,4.33580153 C82.2078321,4.64837227 81.4989952,15.1640509 77.3210436,24.3086763 C76.2541248,26.5773106 75.1087172,28.6997394 73.8831933,30.4072913 C72.7252477,32.2503095 71.4946758,33.7174513 70.4142413,34.9861984 C69.3421113,36.2709602 68.3569376,37.2384411 67.6054369,37.876206 C66.8785248,38.5533484 66.3851236,38.8981371 66.2776506,38.8532957 C65.7956476,38.665075 62.5452252,28.7884801 66.7808219,18.6550837 C67.2932753,17.3703218 67.934208,16.2197073 68.6257843,15.1201516 C69.3168714,14.0205959 70.0643007,12.9850993 70.8372962,12.0191257 C72.436046,10.1936297 74.1183324,8.60402188 75.7027526,7.43305919 C77.3008517,6.28903898 78.7514182,5.44948788 79.8217573,4.91855096 C80.913916,4.43528155 81.6261721,4.25591606 81.7440676,4.33580153 Z M116.315871,0.133166194 C116.490398,0.332102628 115.64048,2.8175535 113.847182,6.0220431 C112.954578,7.63701264 111.833058,9.37439081 110.510159,11.198154 C109.190702,13.0547148 107.662983,14.8566129 105.929411,16.5448843 C102.472937,20.0017185 98.8080288,22.2093752 95.9333143,23.798716 C93.0406993,25.2676196 90.9169354,26.0626485 90.7085006,25.8785875 C90.2835412,25.567458 89.700061,15.4948225 96.972907,7.78218247 C97.8806569,6.84538897 98.8515746,5.94139316 99.8761932,5.19690492 C100.905115,4.46317001 101.970525,3.80596289 103.044025,3.22241602 C103.580172,2.93028414 104.119246,2.65750824 104.654705,2.40122076 C105.191713,2.1646477 105.729065,1.96194761 106.259016,1.76605795 C107.31737,1.3789384 108.349045,1.05831022 109.320823,0.794495422 C111.266445,0.253603386 112.979536,0.129940198 114.216031,0.0315473134 C115.455281,-0.0412168236 116.222239,0.0198978826 116.315871,0.133166194 Z M124.002378,13.0014218 C124.452647,13.0284403 124.895504,13.0657442 125.331128,13.1102632 C125.760401,13.1673704 126.175911,13.240443 126.58507,13.3159719 C127.401446,13.4690253 128.174065,13.6477156 128.890931,13.8368448 C130.325544,14.2071204 131.458801,14.7212386 132.278706,15.0862947 C133.091553,15.4673163 133.555584,15.7588393 133.572875,15.8506407 C133.608515,16.0150541 132.143731,17.0457467 129.811405,18.1369238 C128.641625,18.6920302 127.281821,19.2331669 125.763224,19.7521976 C124.232629,20.2902639 122.58982,20.7283927 120.86285,21.0378768 C117.379975,21.7009035 114.232154,21.6318222 111.814785,21.5022565 C109.433232,21.3033024 107.788659,21.006867 107.725495,20.8389227 C107.573053,20.5292851 110.960122,14.9944934 118.452009,13.3654034 C119.377071,13.1765813 120.329656,13.024756 121.257365,12.9776272 C122.182426,12.9354109 123.104841,12.9481525 124.002378,13.0014218 Z M178.344401,255.077615 C179.198336,255.173901 180.11786,255.312807 181.091582,255.506958 C181.577524,255.601491 182.078532,255.718473 182.588358,255.834753 C183.097081,255.931917 183.616277,256.042585 184.145945,256.170616 C185.204178,256.424749 186.303566,256.743425 187.431245,257.13734 C188.554149,257.519505 189.693587,257.897109 190.855439,258.406429 C200.070705,262.352423 207.042553,269.561812 206.81823,270.115504 C206.70028,270.353326 203.846725,271.517183 199.564737,271.849363 C195.335111,272.297823 189.700201,271.805692 184.778313,269.547255 C182.311674,268.385328 180.256569,266.866666 178.603999,265.340638 C176.944813,263.782164 175.671442,262.077419 174.725279,260.583136 C172.840668,257.570367 172.209219,255.177409 172.379528,254.914156 C172.525954,254.682822 174.931598,254.602846 178.344401,255.077615 Z M210.305492,228.836799 C210.416431,228.922883 210.871962,230.654546 211.060181,233.177988 C211.254741,235.71356 211.09852,238.898285 210.058708,242.056598 C209.295095,244.168941 208.190301,245.933927 207.054436,247.243952 C207.47618,247.144104 207.935673,247.057412 208.419398,246.977423 C210.172849,246.661518 212.200205,246.322656 214.488759,246.229575 C215.606005,246.130977 216.785089,246.083102 218.013301,246.097874 C219.245307,246.113536 220.53346,246.203768 221.81763,246.298629 C232.186207,247.28425 241.333212,252.294401 241.294198,252.879402 C241.285032,253.025875 240.68335,253.562823 239.586779,254.278635 C238.462514,254.959387 236.838619,255.815086 234.868168,256.645158 C232.887094,257.46028 230.470883,258.141031 227.925306,258.634731 C225.297027,259.008654 222.550953,259.228809 219.741145,258.852216 C214.144101,258.172354 209.712483,255.677868 206.828887,253.419198 C205.302694,252.210792 204.167534,251.040259 203.445714,250.159809 C202.997194,250.37969 202.702371,250.446323 202.653391,250.397574 C202.508943,250.256708 202.427738,248.406875 202.663655,245.91278 C202.887043,243.368991 203.38861,240.143767 204.4331,237.289292 C204.9401,235.803752 205.544758,234.554162 206.176735,233.517238 C206.805693,232.472292 207.427558,231.530453 208.022103,230.848822 C209.21738,229.503169 210.164968,228.720389 210.305492,228.836799 Z M189.538648,237.502442 C189.624932,237.63063 189.644245,239.442412 189.207377,241.879551 C188.986529,243.097536 188.649494,244.481113 188.13927,245.878718 C187.620947,247.224697 186.930213,248.588014 186.024862,249.828208 C185.123559,251.102689 184.081306,252.013256 183.036561,252.718097 C181.991816,253.416899 180.946293,253.986539 180.012128,254.23259 C178.139437,254.80223 176.754543,254.7921 176.678072,254.645014 C176.573255,254.458382 176.973834,252.663548 177.85084,250.366677 C178.287863,249.219215 178.838426,247.945708 179.496142,246.690319 C179.824299,246.056974 180.181424,245.447981 180.56347,244.827885 C180.941621,244.190644 181.348585,243.572495 181.783896,242.991751 C182.651245,241.804937 183.560491,240.989245 184.421456,240.188554 C185.284912,239.419229 186.119087,238.862837 186.859972,238.473401 C188.327099,237.601408 189.430716,237.349122 189.538648,237.502442 Z M256.244461,229.253077 C260.134372,229.741106 262.778698,230.566936 262.836275,230.816285 C262.871206,230.956017 262.426135,231.575863 261.563821,232.479991 C260.690759,233.376031 259.458992,234.590943 257.744346,235.776427 C256.048698,236.974303 254.054994,238.262178 251.666119,239.266803 C250.490009,239.782538 249.251333,240.252842 247.969858,240.651905 C246.656524,241.025155 245.288683,241.318041 243.899922,241.516626 C232.646278,243.064691 224.065749,237.247744 224.058727,236.705336 C224.052698,236.585049 224.544407,236.161895 225.445489,235.595568 C226.36442,235.050406 227.628814,234.288075 229.222357,233.510429 C230.015962,233.118594 230.918772,232.752572 231.854592,232.352649 C232.783312,231.947392 233.79072,231.554524 234.870483,231.19487 C237.064748,230.507223 239.378197,229.787569 242.025594,229.399175 C247.202931,228.535143 252.380267,228.783804 256.244461,229.253077 Z M229.296584,211.556097 C229.461057,211.596518 230.474893,212.96976 231.349913,215.098713 C231.788954,216.166929 232.19334,217.427633 232.43804,218.817614 C232.561921,219.511536 232.64521,220.237866 232.673931,220.986097 C232.688674,221.720796 232.638126,222.466357 232.522286,223.229369 C232.278353,224.7399 231.816718,226.192381 231.165527,227.417295 C230.510507,228.63651 229.740604,229.706685 229.001145,230.585795 C227.491975,232.309292 226.056904,233.183772 225.903345,233.141393 C225.688324,233.075152 225.037133,231.491793 224.58239,229.21914 C224.349371,228.076137 224.185855,226.795133 224.102566,225.39251 C224.016404,223.985079 224.047231,222.507668 224.286952,221.058926 C224.546586,219.634935 224.911337,218.272733 225.396906,217.117977 C225.876539,215.956811 226.465119,214.986354 226.9796,214.126474 C228.039964,212.444466 229.117176,211.530277 229.296584,211.556097 Z M243.734635,194.285724 C244.052554,194.282919 249.056069,198.682605 249.824918,204.802709 C250.012327,206.393997 249.880918,207.91297 249.577827,209.287865 C250.79947,208.089438 252.353244,206.83305 254.145584,205.601159 C255.895897,204.316049 258.030145,203.139114 260.31236,202.091305 C262.590699,201.045481 265.014421,200.336828 267.248851,199.795767 C269.48328,199.255428 271.638562,198.939568 273.523556,198.768365 C277.311625,198.430111 279.927223,198.677706 280.056001,198.920786 C280.234778,199.195651 279.038137,201.827817 276.631758,205.038608 C275.377001,206.617365 273.780558,208.315677 271.92988,209.905631 C269.981788,211.446103 267.812301,212.897541 265.339872,213.931445 C262.835156,214.94747 260.390586,215.522302 258.080697,215.752199 C255.744979,215.966204 253.600399,215.874642 251.776473,215.643843 C249.916486,215.408842 248.369302,215.020085 247.288733,214.657058 C246.753609,215.456841 246.318577,215.896666 246.212038,215.872043 C245.772723,215.860108 242.034887,210.497711 241.406544,204.695468 C241.227071,203.221125 241.275592,201.855778 241.458812,200.63295 C241.609247,199.387481 241.864219,198.264699 242.184198,197.338144 C242.843453,195.500305 243.529122,194.284849 243.734635,194.285724 Z M282.246129,169.61121 C285.869322,168.535132 288.449415,168.238026 288.641148,168.440245 C288.872148,168.658537 288.316861,171.340437 286.670727,174.796123 C285.849227,176.52172 284.63744,178.4084 283.199445,180.260168 C281.731769,182.104676 279.852053,183.866049 277.747235,185.356416 C273.375916,188.297743 268.674781,189.495497 264.967521,189.831837 C263.621329,189.960696 262.422891,189.98734 261.435958,189.95675 L261.428446,189.967193 C259.703729,189.898541 258.653473,189.677804 258.543006,189.517102 C258.47424,189.413227 258.66505,188.820226 259.124102,187.91854 C259.160142,187.844758 259.198445,187.769146 259.238894,187.691742 C259.091498,187.475101 258.928063,187.251835 258.762207,187.01681 C257.438574,185.144737 256.011786,182.584346 255.09822,179.63488 C253.402465,173.822839 254.631234,168.521296 254.939104,168.38242 C255.177619,168.299756 260.260741,171.749249 262.10509,177.825632 C262.597746,179.353454 262.785082,180.864375 262.828768,182.290428 L262.828667,182.351725 C264.652513,180.07864 267.059172,177.595394 270.110748,175.401741 C274.181378,172.534562 278.630679,170.686424 282.246129,169.61121 Z M292.745381,138.15875 L292.848759,138.178664 C293.08913,138.344487 293.133878,140.990915 292.28751,144.57566 C291.787644,146.365505 291.054291,148.38285 290.018993,150.410813 C288.916382,152.436079 287.464401,154.465727 285.674141,156.282534 C281.916927,159.908398 277.458296,161.962481 273.777382,163.010839 C272.939734,163.253695 272.151565,163.447094 271.431509,163.598376 C271.449775,163.735504 271.45298,163.864503 271.454134,163.99144 C271.484594,166.530373 271.09675,168.304209 270.938206,168.374168 C270.732554,168.468389 269.134445,167.579954 267.195601,165.929659 C265.250892,164.275116 263.029962,161.900566 261.326095,158.95563 C260.483054,157.484275 259.94745,156.020198 259.507767,154.626281 C259.063165,153.230344 258.807565,151.9169 258.677401,150.779365 C258.611752,150.208979 258.578454,149.684694 258.565778,149.213787 C258.533426,148.739645 258.523588,148.322118 258.53248,147.972526 C258.547048,147.273547 258.630293,146.846516 258.711645,146.800618 C258.99165,146.646749 265.58879,149.036869 269.062931,155.101434 C269.329639,155.547285 269.563389,155.998284 269.769987,156.451643 C271.081243,153.893972 272.956923,151.000786 275.613345,148.277357 C277.299769,146.518857 279.245688,145.000329 281.136151,143.700876 C282.999842,142.402097 284.889157,141.326606 286.588585,140.479628 C289.98744,138.783142 292.634012,138.022615 292.848759,138.178664 L292.745381,138.15875 Z M287.885372,107.944046 C288.003127,108.006713 288.205829,108.689758 288.38303,109.824081 C288.547075,110.959425 288.752213,112.538042 288.673926,114.404795 C288.615129,118.123315 287.816505,122.94295 285.45263,127.188697 C284.246979,129.314465 282.84821,131.088919 281.353612,132.5422 C279.836113,133.995652 278.287753,135.12742 276.886385,135.979737 C274.08105,137.684371 271.859131,138.297766 271.617124,138.132923 C271.427904,137.994474 271.299266,135.716975 271.86173,132.514954 C272.076938,130.913347 272.458627,129.075714 273.084923,127.125178 C273.654858,125.179068 274.434153,123.122779 275.563142,121.069045 C277.679,116.988992 280.710425,113.657379 283.151775,111.364041 C285.630806,109.066107 287.674387,107.827735 287.885372,107.944046 Z M258.769851,121.771572 C261.216211,122.563505 264.26837,123.995498 266.727418,126.40235 C269.050724,128.817108 270.464324,131.722683 270.97305,134.03412 C271.540988,136.345557 271.514001,138.042342 271.362752,138.137946 C270.956334,138.400857 263.997291,136.171286 259.429625,131.480097 C257.076915,129.129703 255.814563,126.564012 255.004749,124.547668 C254.263611,122.52756 254.134315,121.033275 254.265625,120.915463 C254.389685,120.814966 256.318054,120.978697 258.769851,121.771572 Z M261.156313,97.8939895 C263.554228,99.6787245 265.198401,102.11593 266.063151,104.152833 C266.516984,105.165238 266.82061,106.066497 266.995486,106.725548 C267.148397,107.391889 267.1756,107.817088 267.121363,107.875062 C266.976224,108.030666 265.400312,107.908317 263.264795,107.306174 C261.108158,106.708831 258.427062,105.645744 256.133058,103.899776 C251.453643,100.453722 249.747461,95.4742115 249.924026,95.1713613 C250.125261,94.9337761 256.232915,94.3529724 261.156313,97.8939895 Z M277.512234,73.3989213 C277.635603,73.4347225 277.963383,74.0858846 278.357629,75.20601 C278.73902,76.3316304 279.251774,77.9001607 279.547888,79.8293642 C280.226963,83.6517937 280.437175,88.7660889 279.008329,93.6498021 C277.628235,98.5273113 274.916799,102.195723 272.611836,104.55419 C270.312359,106.909822 268.250055,108.047316 268.013822,107.928038 C267.841075,107.82081 267.29258,105.534832 267.187866,102.158149 C267.136763,100.46644 267.093812,98.5264254 267.318602,96.3973001 C267.514079,94.2782776 267.818345,92.020657 268.489268,89.6659116 C269.702258,85.0205803 271.886361,80.9218412 273.733123,78.0047294 C275.612019,75.0766282 277.289012,73.3282043 277.512234,73.3989213 Z M260.537072,43.1744653 C260.867153,43.1510097 262.659744,45.5690315 264.414937,49.382 C265.215297,51.3314218 266.026137,53.611396 266.547907,56.1135792 C267.004275,58.6528925 267.312857,61.3334903 267.050888,64.1077699 C266.787292,66.885858 266.187835,69.3802339 265.30238,71.6046089 C264.417647,73.8318389 263.353511,75.7368954 262.311777,77.2841703 C260.820356,79.5084747 259.338987,81.023094 258.515133,81.6731053 C258.528473,81.6958738 258.523767,81.7101003 258.515132,81.7182824 C258.499621,81.7418316 258.448877,81.7665113 258.365877,81.7912436 C258.119292,81.9651138 257.960487,82.0435711 257.891726,82.03034 C257.865411,82.0220736 257.824962,81.9807977 257.772681,81.9081815 C255.844084,82.1507762 250.425161,82.2055905 245.701708,80.5518537 C244.222767,80.0572727 242.951568,79.4401501 241.878361,78.7821808 C240.804967,78.1251573 239.842381,77.474443 239.123347,76.8418648 C237.689967,75.5759198 236.908686,74.5473299 236.991182,74.4020783 C237.064117,74.2812721 238.715739,73.7687122 241.143766,73.514009 C243.545357,73.2723959 246.676107,73.3408424 249.769732,74.3334745 C252.701565,75.3313512 254.896349,77.0301784 256.355724,78.547877 C256.12351,77.8571906 255.898473,77.0715571 255.691367,76.2089225 C255.217293,74.47257 254.776824,72.4334653 254.543942,70.1430182 C254.221449,67.9108372 254.140871,65.4037029 254.298956,62.7880353 C254.425243,60.1912182 254.89751,57.6480967 255.466074,55.3237568 C256.012053,53.0171251 256.714311,50.8919545 257.424157,49.0838173 C258.853966,45.4538332 260.263902,43.1668138 260.537072,43.1744653 Z M238.691082,21.5896158 C238.829368,21.5517017 239.465859,21.9880036 240.397294,22.8377051 C241.345397,23.6660437 242.522447,24.9857272 243.755969,26.6637672 C244.368647,27.5050005 245.023679,28.4060882 245.616967,29.4311188 C246.206852,30.4609608 246.779899,31.5677859 247.311612,32.7335031 C248.408718,35.0331821 249.173631,37.7366376 249.621828,40.4814716 C250.420249,46.078146 249.450203,51.0762766 248.161232,54.6756234 C246.894372,58.2566867 245.42425,60.4133693 245.125735,60.4446018 C245.027364,60.4517541 244.710233,60.1199069 244.267954,59.4950886 L244.06302,59.1943793 L243.386542,59.4178773 C242.891407,59.5690545 242.32853,59.7194727 241.713868,59.8557698 C239.443881,60.3636835 236.52568,60.6593888 233.574395,60.255944 C230.690162,59.7730414 228.26909,58.7135415 226.651916,57.5897828 C224.961677,56.5697232 224.024032,55.5306167 224.059768,55.3393796 C224.09462,55.1766164 225.440584,54.140973 227.55754,53.2159548 C228.615134,52.7547924 229.869633,52.3236431 231.254165,52.0483308 C232.624012,51.7899491 234.089923,51.7276142 235.62094,51.9288558 C236.384679,52.0314004 237.12365,52.199743 237.831484,52.4148367 C238.523749,52.6472456 239.173732,52.9391034 239.79364,53.2532787 C240.324295,53.5299706 240.833376,53.8223634 241.309675,54.1260941 C240.695557,52.8065587 240.103262,51.2916194 239.508893,49.6867309 C239.132305,48.6187822 238.787185,47.4771222 238.487649,46.2669472 C238.160218,45.0881428 237.870719,43.8517935 237.652318,42.5428877 C235.875687,32.1813416 238.149673,21.7430048 238.691082,21.5896158 Z M220.752882,35.7652736 C222.846143,36.6095854 224.068064,37.6875362 224.058835,37.8536304 C224.05119,38.074351 222.701278,39.1384606 220.637637,40.2149351 C218.551018,41.3272121 215.746899,42.510725 212.855539,42.9311276 C211.379252,43.1883889 210.016237,43.224376 208.798264,43.1201058 C207.580112,43.0145438 206.454049,42.8866513 205.541782,42.6340037 C203.716887,42.1209574 202.522072,41.5750614 202.514629,41.3731648 C202.507173,41.2155599 203.523735,39.8428843 205.319728,38.3251531 C207.115721,36.8029928 209.659551,35.2919054 212.754295,34.6978421 C215.777596,34.2370231 218.715449,34.8410521 220.752882,35.7652736 Z M199.147392,25.9413168 C201.144227,26.1348719 202.472331,26.8576568 202.512494,27.0169215 C202.564269,27.2509642 201.689404,28.8659206 200.213392,30.7605715 C199.477079,31.7221502 198.603828,32.6957099 197.61041,33.7101702 C196.617799,34.7194664 195.523251,35.6754677 194.361119,36.4269657 C193.205923,37.1373565 192.058791,37.7715233 191.011018,38.1136016 C190.486808,38.2947626 189.983406,38.4253142 189.509198,38.514552 C189.030796,38.6203153 188.575944,38.7289706 188.158512,38.7791669 C186.489591,39.0006089 185.350041,38.6952999 185.282458,38.547603 C185.190681,38.2210174 187.144933,31.1507803 192.064598,27.7417721 C193.278505,26.9382187 194.562415,26.380689 195.777936,26.120412 C196.986682,25.8938059 198.14462,25.8681913 199.147392,25.9413168 Z M213.176626,4.91855096 C214.248002,5.44948788 215.698487,6.28903898 217.295862,7.43305919 C218.881186,8.60402188 220.562753,10.1936297 222.163222,12.0191257 C222.935447,12.9850993 223.682104,14.0205959 224.373393,15.1201516 C225.065334,16.2197073 225.707606,17.3703218 226.219111,18.6550837 C230.454622,28.7884801 227.204503,38.665075 226.722311,38.8532957 C226.614506,38.8981371 226.121403,38.5533484 225.393961,37.876206 C224.643069,37.2384411 223.656863,36.2709602 222.586464,34.9861984 C221.504991,33.7174513 220.275327,32.2503095 219.11471,30.4072913 C217.890746,28.6997394 216.745437,26.5773106 215.67748,24.3086763 C211.501084,15.1640509 210.792207,4.64837227 211.255835,4.33580153 C211.371294,4.25591606 212.086034,4.43528155 213.176626,4.91855096 Z M178.205052,0.00594345757 L178.784696,0.0315473134 C180.020346,0.129940198 181.734317,0.253603386 183.678241,0.794495422 C184.651063,1.05831022 185.682579,1.3789384 186.742838,1.76605795 C187.271075,1.96194761 187.808261,2.1646477 188.345276,2.40122076 C188.880913,2.65750824 189.41896,2.93028414 189.955115,3.22241602 C191.027767,3.80596289 192.095944,4.46317001 193.123155,5.19690492 C194.149335,5.94139316 195.119404,6.84538897 196.027165,7.78218247 C203.300269,15.4948225 202.716782,25.567458 202.290957,25.8785875 C202.083208,26.0626485 199.960452,25.2676196 197.066942,23.798716 C194.19116,22.2093752 190.52793,20.0017185 187.069694,16.5448843 C185.337995,14.8566129 183.810085,13.0547148 182.488031,11.198154 C181.167871,9.37439081 180.045304,7.63701264 179.152689,6.0220431 C177.35851,2.8175535 176.509442,0.332102628 176.684144,0.133166194 C176.746451,0.0576539865 177.108171,0.00532115892 177.709788,0.000382596805 L178.205052,0.00594345757 Z" id="Combined-Shape-Copy" fill="#FF9A01"></path>
                <path d="M132.545286,190.9194 C131.281841,192.25154 129.567756,193 127.780403,193 C125.993049,193 124.278965,192.25154 123.015519,190.9194 L84.961852,150.815872 C83.0654752,148.818938 82,146.109749 82,143.284757 C82,140.459765 83.0654752,137.750576 84.961852,135.753641 L89.7267358,130.731596 C91.6221496,128.733375 94.1934694,127.610699 96.8746798,127.610699 C99.5558908,127.610699 102.12721,128.733375 104.022624,130.731596 L127.780403,155.766405 L191.977378,88.1209066 C193.872789,86.1226798 196.444109,85 199.125321,85 C201.806533,85 204.377853,86.1226798 206.273264,88.1209066 L211.038147,93.1429522 C212.934524,95.1398866 214,97.849075 214,100.674068 C214,103.49906 212.934524,106.208248 211.038147,108.205182 L132.545286,190.9194 Z" id="Path-Copy-10" fill="#FFFFFF"></path>
            </g>
            <g id="Text" transform="translate(330.000000, 14.000000)" fill="#FFFFFF">
                <path d="M13.348,51.794 L13.348,34.968 L30.08,34.968 C35.908,34.968 39.48,37.412 39.48,42.864 C39.48,47.94 35.908,51.794 29.892,51.794 L13.348,51.794 Z M29.046,10.81 C35.156,10.81 37.694,12.784 37.694,17.578 C37.694,21.996 34.968,24.346 29.798,24.346 L13.348,24.346 L13.348,10.81 L29.046,10.81 Z M28.858,62.416 C44.556,62.416 52.17,55.178 52.17,43.804 C52.17,34.874 47.94,30.644 42.676,28.67 C47,26.884 50.29,22.372 50.29,17.014 C50.29,6.58 43.71,0 31.49,0 L0.752,0 L0.752,62.416 L28.858,62.416 Z" id="Shape"></path>
                <path d="M66.552,34.78 C67.022,28.388 71.064,24.628 75.952,24.628 C80.746,24.628 85.258,27.918 85.446,34.78 L66.552,34.78 Z M98.042,42.488 C98.042,24.158 90.522,14.946 76.328,14.946 C62.134,14.946 53.956,24.158 53.956,38.446 C53.956,55.178 61.664,63.638 77.08,63.638 C86.95,63.638 94.564,58.28 97.384,48.786 L84.788,48.786 C83.942,51.982 80.464,53.956 76.516,53.956 C70.5,53.956 66.552,49.444 66.176,42.488 L98.042,42.488 Z" id="Shape"></path>
                <path d="M141.846,30.174 C141.188,20.21 135.172,14.946 121.824,14.946 C107.724,14.946 102.366,20.868 102.366,28.67 C102.366,32.806 103.87,36.378 108.194,39.104 C111.484,41.172 115.808,42.488 123.61,44.368 C127.558,45.308 131.036,46.342 131.036,49.632 C131.036,53.11 127.182,54.426 122.858,54.426 C116.936,54.426 113.27,51.888 113.27,47.564 L100.674,47.564 C100.862,56.964 108.758,63.638 122.952,63.638 C136.112,63.638 143.162,57.904 143.162,48.316 C143.162,42.3 140.436,39.104 135.548,37.13 C131.976,35.72 126.994,34.686 121.73,33.182 C116.748,31.772 114.21,30.644 114.21,27.918 C114.21,25.192 116.842,24.064 121.448,24.064 C126.994,24.064 129.438,25.662 130.096,30.174 L141.846,30.174 Z" id="Path"></path>
                <path d="M172.302,43.992 C172.302,49.726 170.046,53.016 165.158,53.016 C160.176,53.016 158.108,49.632 158.108,43.804 L158.108,24.816 L183.676,24.816 L183.676,16.168 L158.108,16.168 L158.108,3.666 L146.076,3.666 L146.076,45.026 C146.076,54.99 151.434,63.638 164.97,63.638 C178.036,63.638 183.676,54.896 183.676,45.12 L183.676,31.96 L172.302,31.96 L172.302,43.992 Z" id="Path"></path>
                <polygon id="Path" points="61.288 152.416 61.288 90 42.488 90 31.208 135.778 19.928 90 0.752 90 0.752 152.416 12.878 152.416 12.878 109.834 24.44 152.416 37.412 152.416 49.068 109.646 49.068 152.416"></polygon>
                <path d="M94.376,134.838 C94.282,140.29 89.582,144.896 83.284,144.896 C79.43,144.896 77.362,143.204 77.362,139.726 C77.362,135.778 79.618,133.804 86.574,132.488 C91.086,131.642 93.248,130.984 94.47,129.762 L94.376,134.838 Z M106.69,152.416 L106.69,123.182 C106.69,111.526 101.614,104.946 86.95,104.946 C72.098,104.946 66.834,111.62 66.646,121.208 L78.02,121.208 C78.584,117.072 80.84,114.346 86.386,114.346 C91.18,114.346 94.188,116.132 94.188,119.14 C94.188,122.336 92.496,123.558 86.386,124.404 C74.072,126.096 65.142,127.6 65.142,140.948 C65.142,148.468 70.03,153.638 80.558,153.638 C86.762,153.638 91.65,151.476 94.564,148.28 C94.658,149.69 94.94,151.288 95.316,152.416 L106.69,152.416 Z" id="Shape"></path>
                <path d="M138.274,133.992 C138.274,139.726 136.018,143.016 131.13,143.016 C126.148,143.016 124.08,139.632 124.08,133.804 L124.08,114.816 L149.648,114.816 L149.648,106.168 L124.08,106.168 L124.08,93.666 L112.048,93.666 L112.048,135.026 C112.048,144.99 117.406,153.638 130.942,153.638 C144.008,153.638 149.648,144.896 149.648,135.12 L149.648,121.96 L138.274,121.96 L138.274,133.992 Z" id="Path"></path>
                <path d="M180.856,133.992 C180.856,139.726 178.6,143.016 173.712,143.016 C168.73,143.016 166.662,139.632 166.662,133.804 L166.662,114.816 L192.23,114.816 L192.23,106.168 L166.662,106.168 L166.662,93.666 L154.63,93.666 L154.63,135.026 C154.63,144.99 159.988,153.638 173.524,153.638 C186.59,153.638 192.23,144.896 192.23,135.12 L192.23,121.96 L180.856,121.96 L180.856,133.992 Z" id="Path"></path>
                <path d="M209.432,152.416 L209.432,128.352 C209.432,120.926 213.098,117.166 220.618,117.166 C221.746,117.166 222.874,117.26 224.002,117.448 L224.002,104.946 L222.404,104.946 C217.422,104.946 212.722,105.51 208.68,111.714 L208.68,106.168 L197.212,106.168 L197.212,152.416 L209.432,152.416 Z" id="Path"></path>
                <path d="M236.128,124.78 C236.598,118.388 240.64,114.628 245.528,114.628 C250.322,114.628 254.834,117.918 255.022,124.78 L236.128,124.78 Z M267.618,132.488 C267.618,114.158 260.098,104.946 245.904,104.946 C231.71,104.946 223.532,114.158 223.532,128.446 C223.532,145.178 231.24,153.638 246.656,153.638 C256.526,153.638 264.14,148.28 266.96,138.786 L254.364,138.786 C253.518,141.982 250.04,143.956 246.092,143.956 C240.076,143.956 236.128,139.444 235.752,132.488 L267.618,132.488 Z" id="Shape"></path>
                <path d="M311.422,120.174 C310.764,110.21 304.748,104.946 291.4,104.946 C277.3,104.946 271.942,110.868 271.942,118.67 C271.942,122.806 273.446,126.378 277.77,129.104 C281.06,131.172 285.384,132.488 293.186,134.368 C297.134,135.308 300.612,136.342 300.612,139.632 C300.612,143.11 296.758,144.426 292.434,144.426 C286.512,144.426 282.846,141.888 282.846,137.564 L270.25,137.564 C270.438,146.964 278.334,153.638 292.528,153.638 C305.688,153.638 312.738,147.904 312.738,138.316 C312.738,132.3 310.012,129.104 305.124,127.13 C301.552,125.72 296.57,124.686 291.306,123.182 C286.324,121.772 283.786,120.644 283.786,117.918 C283.786,115.192 286.418,114.064 291.024,114.064 C296.57,114.064 299.014,115.662 299.672,120.174 L311.422,120.174 Z" id="Path"></path>
                <path d="M355.79,120.174 C355.132,110.21 349.116,104.946 335.768,104.946 C321.668,104.946 316.31,110.868 316.31,118.67 C316.31,122.806 317.814,126.378 322.138,129.104 C325.428,131.172 329.752,132.488 337.554,134.368 C341.502,135.308 344.98,136.342 344.98,139.632 C344.98,143.11 341.126,144.426 336.802,144.426 C330.88,144.426 327.214,141.888 327.214,137.564 L314.618,137.564 C314.806,146.964 322.702,153.638 336.896,153.638 C350.056,153.638 357.106,147.904 357.106,138.316 C357.106,132.3 354.38,129.104 349.492,127.13 C345.92,125.72 340.938,124.686 335.674,123.182 C330.692,121.772 328.154,120.644 328.154,117.918 C328.154,115.192 330.786,114.064 335.392,114.064 C340.938,114.064 343.382,115.662 344.04,120.174 L355.79,120.174 Z" id="Path"></path>
                <path d="M29.986,237.392 C19.176,237.392 12.878,230.812 12.878,216.054 C12.878,201.296 18.988,193.494 29.986,193.494 C40.89,193.494 46.906,201.296 46.906,216.054 C46.906,230.812 39.386,237.392 29.986,237.392 Z M29.986,248.578 C49.162,248.578 59.784,237.486 59.784,216.054 C59.784,194.622 49.162,181.932 29.986,181.932 C10.81,181.932 0,194.622 0,215.772 C0,236.828 10.81,248.578 29.986,248.578 Z" id="Shape"></path>
                <path d="M105.938,246.416 L105.938,214.362 C105.938,204.304 99.452,198.946 90.616,198.946 C83.19,198.946 78.49,201.766 75.67,206.936 L75.67,200.168 L64.014,200.168 L64.014,246.416 L76.234,246.416 L76.234,219.908 C76.234,212.858 79.336,209.286 85.728,209.286 C91.556,209.286 93.624,211.26 93.624,218.404 L93.624,246.416 L105.938,246.416 Z" id="Path"></path>
                <polygon id="Path" points="123.516 246.416 123.516 183.248 111.296 183.248 111.296 246.416"></polygon>
                <path d="M141.188,246.416 L141.188,200.168 L128.968,200.168 L128.968,246.416 L141.188,246.416 Z M141.188,194.622 L141.188,183.248 L128.968,183.248 L128.968,194.622 L141.188,194.622 Z" id="Shape"></path>
                <path d="M188.658,246.416 L188.658,214.362 C188.658,204.304 182.172,198.946 173.336,198.946 C165.91,198.946 161.21,201.766 158.39,206.936 L158.39,200.168 L146.734,200.168 L146.734,246.416 L158.954,246.416 L158.954,219.908 C158.954,212.858 162.056,209.286 168.448,209.286 C174.276,209.286 176.344,211.26 176.344,218.404 L176.344,246.416 L188.658,246.416 Z" id="Path"></path>
                <path d="M205.578,218.78 C206.048,212.388 210.09,208.628 214.978,208.628 C219.772,208.628 224.284,211.918 224.472,218.78 L205.578,218.78 Z M237.068,226.488 C237.068,208.158 229.548,198.946 215.354,198.946 C201.16,198.946 192.982,208.158 192.982,222.446 C192.982,239.178 200.69,247.638 216.106,247.638 C225.976,247.638 233.59,242.28 236.41,232.786 L223.814,232.786 C222.968,235.982 219.49,237.956 215.542,237.956 C209.526,237.956 205.578,233.444 205.202,226.488 L237.068,226.488 Z" id="Shape"></path>
            </g>
        </g>
    </g>
</svg>