<?xml version="1.0" encoding="UTF-8"?>
<svg width="128px" height="23px" viewBox="0 0 128 23" version="1.1" xmlns="http://www.w3.org/2000/svg" xmlns:xlink="http://www.w3.org/1999/xlink">
    <title>Star 5</title>
    <defs>
        <linearGradient x1="34.4596744%" y1="34.50363%" x2="120.946142%" y2="117.280446%" id="linearGradient-1">
            <stop stop-color="#FCBA02" offset="0%"></stop>
            <stop stop-color="#FC7C02" offset="100%"></stop>
        </linearGradient>
        <linearGradient x1="50%" y1="0%" x2="50%" y2="100%" id="linearGradient-2">
            <stop stop-color="#FCBA02" offset="0%"></stop>
            <stop stop-color="#FCBA02" offset="100%"></stop>
        </linearGradient>
    </defs>
    <g id="Desktop" stroke="none" stroke-width="1" fill="none" fill-rule="evenodd">
        <g id="Star-5" fill="url(#linearGradient-1)" stroke="url(#linearGradient-2)">
            <path d="M114.723828,1.56183261 L118.247842,7.78732092 L125.84442,9.11372256 L120.65033,14.3184454 L121.738182,21.9662029 L115.183135,18.6346779 L108.245927,22.032536 L109.407064,14.6617738 L104.014932,9.22093546 L111.38225,8.04779042 L114.723828,1.56183261 Z" id="Star-Copy-21"></path>
            <path d="M89.0101965,1.56183261 L92.534211,7.78732092 L100.130788,9.11372256 L94.9366988,14.3184454 L96.0245511,21.9662029 L89.4695036,18.6346779 L82.5322963,22.032536 L83.6934324,14.6617738 L78.3013012,9.22093546 L85.6686185,8.04779042 L89.0101965,1.56183261 Z" id="Star-Copy-17"></path>
            <path d="M63.2965653,1.56183261 L66.8205798,7.78732092 L74.4171573,9.11372256 L69.2230676,14.3184454 L70.31092,21.9662029 L63.7558724,18.6346779 L56.8186651,22.032536 L57.9798013,14.6617738 L52.58767,9.22093546 L59.9549874,8.04779042 L63.2965653,1.56183261 Z" id="Star-Copy-18"></path>
            <path d="M37.5829341,1.56183261 L41.1069487,7.78732092 L48.7035262,9.11372256 L43.5094365,14.3184454 L44.5972888,21.9662029 L38.0422412,18.6346779 L31.105034,22.032536 L32.2661701,14.6617738 L26.8740389,9.22093546 L34.2413562,8.04779042 L37.5829341,1.56183261 Z" id="Star-Copy-19"></path>
            <path d="M11.869303,1.56183261 L15.3933175,7.78732092 L22.989895,9.11372256 L17.7958053,14.3184454 L18.8836577,21.9662029 L12.3286101,18.6346779 L5.39140281,22.032536 L6.55253897,14.6617738 L1.1604077,9.22093546 L8.52772504,8.04779042 L11.869303,1.56183261 Z" id="Star-Copy-20"></path>
        </g>
    </g>
</svg>