<?xml version="1.0" encoding="UTF-8"?>
<svg width="121px" height="19px" viewBox="0 0 121 19" version="1.1" xmlns="http://www.w3.org/2000/svg" xmlns:xlink="http://www.w3.org/1999/xlink">
    <title>8FE167A2-BE29-4134-82D4-F36F2C1E3BF3</title>
    <g id="Desktop" stroke="none" stroke-width="1" fill="none" fill-rule="evenodd">
        <g id="BMO---Desktop-NEW-6" transform="translate(-525.000000, -935.000000)" fill="#FFA41D" stroke="#E17D22" stroke-width="0.8">
            <g id="Group" transform="translate(360.000000, 652.000000)">
                <g id="Stars" transform="translate(165.000000, 283.000000)">
                    <path d="M85.6247445,15.0190895 L80.5366102,17.6323266 C80.3400989,17.7332537 80.0989775,17.6557674 79.9980504,17.4592561 C79.9582124,17.381689 79.9448127,17.2932285 79.9598913,17.2073428 L80.9418636,11.6141773 C80.9557522,11.5350702 80.9291492,11.4542595 80.8709849,11.3988722 L76.7188773,7.44500153 C76.5588952,7.29265757 76.5527032,7.03946728 76.7050472,6.87948518 C76.7671249,6.8142951 76.8493771,6.77195029 76.9385024,6.7592986 L82.6901009,5.94283626 C82.7678002,5.93180653 82.8351987,5.88348556 82.8705859,5.81343856 L85.4504628,0.706713965 C85.5500767,0.509533774 85.7906758,0.430440648 85.987856,0.530054526 C86.0640937,0.568569171 86.1260008,0.630476343 86.1645155,0.706713965 L88.7067407,5.73890898 C88.7657194,5.85565399 88.8780502,5.93618894 89.007549,5.95457182 L94.6764759,6.7592986 C94.8951971,6.79034694 95.047336,6.99282514 95.0162876,7.21154632 C95.0036359,7.30067161 94.9612911,7.38292387 94.896101,7.44500153 L90.8060681,11.3397611 C90.7091277,11.4320733 90.6647894,11.5667577 90.687937,11.698603 L91.655087,17.2073428 C91.6932878,17.4249288 91.5478674,17.6322849 91.3302814,17.6704857 C91.2443957,17.6855644 91.1559352,17.6721646 91.0783681,17.6323266 L85.9902338,15.0190895 C85.8755262,14.9601764 85.7394521,14.9601764 85.6247445,15.0190895 Z" id="Star-Copy-3"></path>
                    <path d="M110.998313,15.0190895 L105.910179,17.6323266 C105.713667,17.7332537 105.472546,17.6557674 105.371619,17.4592561 C105.331781,17.381689 105.318381,17.2932285 105.33346,17.2073428 L106.315432,11.6141773 C106.32932,11.5350702 106.302718,11.4542595 106.244553,11.3988722 L102.092446,7.44500153 C101.932464,7.29265757 101.926272,7.03946728 102.078616,6.87948518 C102.140693,6.8142951 102.222945,6.77195029 102.312071,6.7592986 L108.063669,5.94283626 C108.141369,5.93180653 108.208767,5.88348556 108.244154,5.81343856 L110.824031,0.706713965 C110.923645,0.509533774 111.164244,0.430440648 111.361424,0.530054526 C111.437662,0.568569171 111.499569,0.630476343 111.538084,0.706713965 L114.080309,5.73890898 C114.139288,5.85565399 114.251619,5.93618894 114.381117,5.95457182 L120.050044,6.7592986 C120.268765,6.79034694 120.420904,6.99282514 120.389856,7.21154632 C120.377204,7.30067161 120.334859,7.38292387 120.269669,7.44500153 L116.179636,11.3397611 C116.082696,11.4320733 116.038358,11.5667577 116.061505,11.698603 L117.028655,17.2073428 C117.066856,17.4249288 116.921436,17.6322849 116.70385,17.6704857 C116.617964,17.6855644 116.529504,17.6721646 116.451936,17.6323266 L111.363802,15.0190895 C111.249095,14.9601764 111.11302,14.9601764 110.998313,15.0190895 Z" id="Star-Copy-4"></path>
                    <path d="M60.2511762,15.0190895 L55.1630419,17.6323266 C54.9665306,17.7332537 54.7254092,17.6557674 54.6244821,17.4592561 C54.5846441,17.381689 54.5712443,17.2932285 54.586323,17.2073428 L55.5682953,11.6141773 C55.5821838,11.5350702 55.5555809,11.4542595 55.4974166,11.3988722 L51.3453089,7.44500153 C51.1853269,7.29265757 51.1791349,7.03946728 51.3314789,6.87948518 C51.3935565,6.8142951 51.4758088,6.77195029 51.5649341,6.7592986 L57.3165325,5.94283626 C57.3942318,5.93180653 57.4616303,5.88348556 57.4970175,5.81343856 L60.0768945,0.706713965 C60.1765084,0.509533774 60.4171075,0.430440648 60.6142877,0.530054526 C60.6905253,0.568569171 60.7524325,0.630476343 60.7909471,0.706713965 L63.3331724,5.73890898 C63.392151,5.85565399 63.5044819,5.93618894 63.6339807,5.95457182 L69.3029076,6.7592986 C69.5216287,6.79034694 69.6737676,6.99282514 69.6427193,7.21154632 C69.6300676,7.30067161 69.5877228,7.38292387 69.5225327,7.44500153 L65.4324998,11.3397611 C65.3355594,11.4320733 65.2912211,11.5667577 65.3143687,11.698603 L66.2815187,17.2073428 C66.3197195,17.4249288 66.174299,17.6322849 65.9567131,17.6704857 C65.8708274,17.6855644 65.7823669,17.6721646 65.7047998,17.6323266 L60.6166655,15.0190895 C60.5019579,14.9601764 60.3658838,14.9601764 60.2511762,15.0190895 Z" id="Star-Copy-2"></path>
                    <path d="M34.8776079,15.0190895 L29.7894735,17.6323266 C29.5929623,17.7332537 29.3518409,17.6557674 29.2509138,17.4592561 C29.2110758,17.381689 29.197676,17.2932285 29.2127547,17.2073428 L30.1947269,11.6141773 C30.2086155,11.5350702 30.1820125,11.4542595 30.1238483,11.3988722 L25.9717406,7.44500153 C25.8117585,7.29265757 25.8055666,7.03946728 25.9579105,6.87948518 C26.0199882,6.8142951 26.1022405,6.77195029 26.1913658,6.7592986 L31.9429642,5.94283626 C32.0206635,5.93180653 32.088062,5.88348556 32.1234492,5.81343856 L34.7033262,0.706713965 C34.8029401,0.509533774 35.0435392,0.430440648 35.2407194,0.530054526 C35.316957,0.568569171 35.3788642,0.630476343 35.4173788,0.706713965 L37.959604,5.73890898 C38.0185827,5.85565399 38.1309135,5.93618894 38.2604124,5.95457182 L43.9293392,6.7592986 C44.1480604,6.79034694 44.3001993,6.99282514 44.269151,7.21154632 C44.2564993,7.30067161 44.2141545,7.38292387 44.1489644,7.44500153 L40.0589315,11.3397611 C39.961991,11.4320733 39.9176528,11.5667577 39.9408004,11.698603 L40.9079503,17.2073428 C40.9461511,17.4249288 40.8007307,17.6322849 40.5831448,17.6704857 C40.497259,17.6855644 40.4087985,17.6721646 40.3312315,17.6323266 L35.2430971,15.0190895 C35.1283895,14.9601764 34.9923155,14.9601764 34.8776079,15.0190895 Z" id="Star-Copy"></path>
                    <path d="M9.50403953,15.0190895 L4.41590521,17.6323266 C4.21939394,17.7332537 3.97827252,17.6557674 3.87734545,17.4592561 C3.83750743,17.381689 3.82410768,17.2932285 3.83918633,17.2073428 L4.82115861,11.6141773 C4.83504717,11.5350702 4.80844422,11.4542595 4.75027995,11.3988722 L0.598172285,7.44500153 C0.438190189,7.29265757 0.431998256,7.03946728 0.584342214,6.87948518 C0.646419878,6.8142951 0.728672134,6.77195029 0.817797425,6.7592986 L6.56939588,5.94283626 C6.64709518,5.93180653 6.71449367,5.88348556 6.74988087,5.81343856 L9.32975785,0.706713965 C9.42937172,0.509533774 9.66997085,0.430440648 9.86715105,0.530054526 C9.94338867,0.568569171 10.0052958,0.630476343 10.0438105,0.706713965 L12.5860357,5.73890898 C12.6450144,5.85565399 12.7573452,5.93618894 12.886844,5.95457182 L18.5557709,6.7592986 C18.7744921,6.79034694 18.926631,6.99282514 18.8955826,7.21154632 C18.8829309,7.30067161 18.8405861,7.38292387 18.775396,7.44500153 L14.6853631,11.3397611 C14.5884227,11.4320733 14.5440844,11.5667577 14.567232,11.698603 L15.534382,17.2073428 C15.5725828,17.4249288 15.4271624,17.6322849 15.2095764,17.6704857 C15.1236907,17.6855644 15.0352302,17.6721646 14.9576631,17.6323266 L9.8695288,15.0190895 C9.7548212,14.9601764 9.61874713,14.9601764 9.50403953,15.0190895 Z" id="Star"></path>
                </g>
            </g>
        </g>
    </g>
</svg>