<?xml version="1.0" encoding="UTF-8"?>
<svg width="128px" height="23px" viewBox="0 0 128 23" version="1.1" xmlns="http://www.w3.org/2000/svg" xmlns:xlink="http://www.w3.org/1999/xlink">
    <title>Star 4</title>
    <defs>
        <linearGradient x1="84.3831307%" y1="43.1229212%" x2="35.2853684%" y2="43.1229212%" id="linearGradient-1">
            <stop stop-color="#ECECEC" offset="0%"></stop>
            <stop stop-color="#F0F0F0" offset="56.5423627%"></stop>
            <stop stop-color="#FFFFFF" offset="100%"></stop>
        </linearGradient>
        <path d="M11.859145,19.1934531 L5.51539864,22.5285579 C5.27097635,22.6570583 4.96866277,22.5630851 4.84016237,22.3186628 C4.78899283,22.2213326 4.77133549,22.1098485 4.78992392,22.0014697 L6.01924612,14.8339713 C6.0359375,14.7366531 6.00367295,14.637353 5.93296713,14.5684319 L0.725474725,9.49238134 C0.527732937,9.29963074 0.523686783,8.9830741 0.716437389,8.78533231 C0.793191692,8.7065905 0.893762897,8.65534691 1.00258141,8.63953465 L8.19915891,7.59381073 C8.29687196,7.57961219 8.38134164,7.51824138 8.42504024,7.42969834 L11.6434475,0.908492875 C11.7656587,0.660866045 12.0654716,0.559196546 12.3130984,0.681407693 C12.4117047,0.730072812 12.4915185,0.809886573 12.5401836,0.908492875 L15.7120568,7.33540993 C15.7848878,7.48298166 15.9256706,7.58526635 16.0885257,7.60893058 L23.1810497,8.63953465 C23.4543222,8.67924346 23.6436629,8.93296489 23.6039541,9.20623732 C23.5881418,9.31505583 23.5368982,9.41562704 23.4581564,9.49238134 L18.3259578,14.4950386 C18.2081148,14.6099072 18.1543405,14.7754073 18.1821595,14.9376043 L19.3937072,22.0014697 C19.4403877,22.2736379 19.2575938,22.5321159 18.9854256,22.5787964 C18.8770468,22.5973848 18.7655628,22.5797275 18.6682325,22.5285579 L12.3244861,19.1934531 C12.1788241,19.1168741 12.004807,19.1168741 11.859145,19.1934531 Z" id="path-2"></path>
        <linearGradient x1="34.4596744%" y1="34.50363%" x2="120.946142%" y2="117.280446%" id="linearGradient-4">
            <stop stop-color="#FCBA02" offset="0%"></stop>
            <stop stop-color="#FC7C02" offset="100%"></stop>
        </linearGradient>
        <linearGradient x1="50%" y1="0%" x2="50%" y2="100%" id="linearGradient-5">
            <stop stop-color="#FCBA02" offset="0%"></stop>
            <stop stop-color="#FCBA02" offset="100%"></stop>
        </linearGradient>
    </defs>
    <g id="Desktop" stroke="none" stroke-width="1" fill="none" fill-rule="evenodd">
        <g id="Star-4" transform="translate(0.000000, 0.000000)">
            <g id="Star-0" transform="translate(102.854525, 0.000000)">
                <mask id="mask-3" fill="white">
                    <use xlink:href="#path-2"></use>
                </mask>
                <path stroke="#DBDCDE" d="M11.869303,1.56183261 L15.3933175,7.78732092 L22.989895,9.11372256 L17.7958053,14.3184454 L18.8836577,21.9662029 L12.3286101,18.6346779 L5.39140281,22.032536 L6.55253897,14.6617738 L1.1604077,9.22093546 L8.52772504,8.04779042 L11.869303,1.56183261 Z"></path>
            </g>
            <path d="M89.0101965,1.56183261 L92.534211,7.78732092 L100.130788,9.11372256 L94.9366988,14.3184454 L96.0245511,21.9662029 L89.4695036,18.6346779 L82.5322963,22.032536 L83.6934324,14.6617738 L78.3013012,9.22093546 L85.6686185,8.04779042 L89.0101965,1.56183261 Z" id="Star-Copy-9" stroke="url(#linearGradient-5)" fill="url(#linearGradient-4)"></path>
            <path d="M63.2965653,1.56183261 L66.8205798,7.78732092 L74.4171573,9.11372256 L69.2230676,14.3184454 L70.31092,21.9662029 L63.7558724,18.6346779 L56.8186651,22.032536 L57.9798013,14.6617738 L52.58767,9.22093546 L59.9549874,8.04779042 L63.2965653,1.56183261 Z" id="Star-Copy-10" stroke="url(#linearGradient-5)" fill="url(#linearGradient-4)"></path>
            <path d="M37.5829341,1.56183261 L41.1069487,7.78732092 L48.7035262,9.11372256 L43.5094365,14.3184454 L44.5972888,21.9662029 L38.0422412,18.6346779 L31.105034,22.032536 L32.2661701,14.6617738 L26.8740389,9.22093546 L34.2413562,8.04779042 L37.5829341,1.56183261 Z" id="Star-Copy-11" stroke="url(#linearGradient-5)" fill="url(#linearGradient-4)"></path>
            <path d="M11.869303,1.56183261 L15.3933175,7.78732092 L22.989895,9.11372256 L17.7958053,14.3184454 L18.8836577,21.9662029 L12.3286101,18.6346779 L5.39140281,22.032536 L6.55253897,14.6617738 L1.1604077,9.22093546 L8.52772504,8.04779042 L11.869303,1.56183261 Z" id="Star-Copy-12" stroke="url(#linearGradient-5)" fill="url(#linearGradient-4)"></path>
        </g>
    </g>
</svg>