<?xml version="1.0" encoding="UTF-8"?>
<svg width="15px" height="13px" viewBox="0 0 15 13" version="1.1" xmlns="http://www.w3.org/2000/svg" xmlns:xlink="http://www.w3.org/1999/xlink">
    <title>79586E64-72E7-4AE2-A56D-8ECB16794A8B</title>
    <g id="Desktop" stroke="none" stroke-width="1" fill="none" fill-rule="evenodd">
        <g id="BMO---Desktop-NEW-5" transform="translate(-837.000000, -2730.000000)" fill="#323438" fill-rule="nonzero">
            <path d="M842.743783,2742.0363 C842.600209,2742.18767 842.405427,2742.27273 842.202319,2742.27273 C841.99921,2742.27273 841.804428,2742.18767 841.660854,2742.0363 L837.336574,2737.47908 C837.121077,2737.25215 837,2736.94429 837,2736.62327 C837,2736.30225 837.121077,2735.99438 837.336574,2735.76746 L837.878038,2735.19677 C838.093426,2734.9697 838.385622,2734.84212 838.690305,2734.84212 C838.994988,2734.84212 839.287183,2734.9697 839.502571,2735.19677 L842.202319,2738.04164 L849.497429,2730.35465 C849.712817,2730.12758 850.005012,2730 850.309696,2730 C850.614379,2730 850.906574,2730.12758 851.121962,2730.35465 L851.663426,2730.92534 C851.878923,2731.15226 852,2731.46012 852,2731.78114 C852,2732.10217 851.878923,2732.41003 851.663426,2732.63695 L842.743783,2742.0363 Z" id="Path-Copy-8"></path>
        </g>
    </g>
</svg>