<svg width="12" height="13" viewBox="0 0 12 13" xmlns="http://www.w3.org/2000/svg">
    <g fill="#ffffff" fill-rule="evenodd">
        <path d="M6 1.424a4.915 4.915 0 0 0-4.91 4.91A4.915 4.915 0 0 0 6 11.241a4.914 4.914 0 0 0 4.91-4.909A4.915 4.915 0 0 0 6 1.424m0 10.91c-3.308 0-6-2.692-6-6 0-3.309 2.692-6 6-6s6 2.691 6 6c0 3.308-2.692 6-6 6"/>
        <path d="M6.1 9.433a.608.608 0 0 1-.6-.616V6.35c0-.34.269-.617.6-.617.331 0 .6.277.6.617v2.467a.608.608 0 0 1-.6.616M6.1 4.533a.596.596 0 0 1-.228-.048.62.62 0 0 1-.198-.126.633.633 0 0 1-.174-.427c0-.036.006-.078.012-.114a.363.363 0 0 1 .036-.114.455.455 0 0 1 .054-.108c.018-.03.048-.06.072-.09a.62.62 0 0 1 .198-.127.61.61 0 0 1 .654.127c.024.03.054.06.072.09a.455.455 0 0 1 .054.108c.018.036.03.072.036.114a.738.738 0 0 1 .012.114.633.633 0 0 1-.174.427l-.09.072a.454.454 0 0 1-.108.054.38.38 0 0 1-.108.036c-.042.006-.084.012-.12.012"/>
    </g>
</svg>
