<?xml version="1.0" encoding="UTF-8"?>
<svg width="21px" height="21px" viewBox="0 0 21 21" version="1.1" xmlns="http://www.w3.org/2000/svg" xmlns:xlink="http://www.w3.org/1999/xlink">
    <title>B0388456-92B6-48D3-AA0B-D55B9B416508</title>
    <g id="Desktop" stroke="none" stroke-width="1" fill="none" fill-rule="evenodd">
        <g id="BMO---Desktop-FInal" transform="translate(-323.000000, -93.000000)" fill="#ffffff">
            <g id="Group-10" transform="translate(323.052134, 93.000000)">
                <g id="Group-9">
                    <path d="M1.83566434,2.33333333 L3.67132867,2.33333333 L3.67132867,3.73333333 L4.58916084,3.73333333 L4.58916084,2.33333333 L13.7674825,2.33333333 L13.7674825,3.73333333 L14.6853147,3.73333333 L14.6853147,2.33333333 L16.520979,2.33333333 C17.0271635,2.33333333 17.4388112,2.75193333 17.4388112,3.26666667 L17.4388112,6.06666667 L0.917832168,6.06666667 L0.917832168,3.26666667 C0.917832168,2.75193333 1.3294799,2.33333333 1.83566434,2.33333333 M0.917832168,17.7333333 L0.917832168,7 L17.4388112,7 L17.4388112,7.93333333 L18.3566434,7.93333333 L18.3566434,3.26666667 C18.3566434,2.2372 17.5333479,1.4 16.520979,1.4 L14.6853147,1.4 L14.6853147,0 L13.7674825,0 L13.7674825,1.4 L4.58916084,1.4 L4.58916084,0 L3.67132867,0 L3.67132867,1.4 L1.83566434,1.4 C0.823295455,1.4 0,2.2372 0,3.26666667 L0,17.7333333 C0,18.7628 0.823295455,19.6 1.83566434,19.6 L7.80157343,19.6 L7.80157343,18.6666667 L1.83566434,18.6666667 C1.3294799,18.6666667 0.917832168,18.2480667 0.917832168,17.7333333" id="Fill-3"></path>
                    <path d="M3.21241259,12.1333333 L5.96590909,12.1333333 L5.96590909,9.33333333 L3.21241259,9.33333333 L3.21241259,12.1333333 Z M2.29458042,13.0666667 L6.88374126,13.0666667 L6.88374126,8.4 L2.29458042,8.4 L2.29458042,13.0666667 Z" id="Fill-7"></path>
                </g>
                <g id="Group-8" transform="translate(8.884615, 9.692308)" stroke="#ffffff" stroke-linecap="round" stroke-width="0.4">
                    <path d="M1.93925,1.84375 L3,0.83325 L3,2.91656043 L3.5,2.91656043 L3.5,0 L0.660451449,0 L0.660451449,0.5 L2.62525,0.5 L1.59275,1.4835 C0.56575,2.481 0,3.8185 0,5.25 C0,8.14475 2.35525,10.5 5.25,10.5 L5.25,10 C2.63075,10 0.5,7.86925 0.5,5.25 C0.5,3.955 1.01175,2.74475 1.93925,1.84375 Z" id="Fill-1"></path>
                    <path d="M7.05463462,1.84375 L8.11538462,0.83325 L8.11538462,2.91656043 L8.61538462,2.91656043 L8.61538462,0 L5.77583606,0 L5.77583606,0.5 L7.74063462,0.5 L6.70813462,1.4835 C5.68113462,2.481 5.11538462,3.8185 5.11538462,5.25 C5.11538462,8.14475 7.47063462,10.5 10.3653846,10.5 L10.3653846,10 C7.74613462,10 5.61538462,7.86925 5.61538462,5.25 C5.61538462,3.955 6.12713462,2.74475 7.05463462,1.84375 Z" id="Fill-1" transform="translate(7.740385, 5.250000) scale(-1, -1) translate(-7.740385, -5.250000) "></path>
                    <path d="M2.90047959,5.39047806 L4.31183171,6.75 L4.31183171,6.75 L7.58756878,3.79665827 C7.68095384,3.71246409 7.68840452,3.56850767 7.60421034,3.47512261 C7.59802831,3.46826572 7.5914349,3.46179122 7.58446665,3.45573498 C7.47371314,3.35947691 7.30849491,3.36117347 7.19974142,3.45968558 L4.31183171,6.07563907 L4.31183171,6.07563907 L3.28566026,5.05613482 C3.18288117,4.95402351 3.01871423,4.94855069 2.90936275,5.04359023 C2.81132758,5.12879454 2.80092611,5.27733948 2.88613041,5.37537465 C2.89068803,5.3806186 2.89547579,5.38565801 2.90047959,5.39047806 Z" id="Fill-6"></path>
                </g>
            </g>
        </g>
    </g>
</svg>